<svg width="116" height="48" viewBox="0 0 116 48" fill="none" xmlns="http://www.w3.org/2000/svg">
<mask id="mask0_7798_33146" style="mask-type:alpha" maskUnits="userSpaceOnUse" x="0" y="0" width="116" height="48">
<rect width="116" height="48" rx="8" fill="#BCCBFF"/>
</mask>
<g mask="url(#mask0_7798_33146)">
<mask id="mask1_7798_33146" style="mask-type:alpha" maskUnits="userSpaceOnUse" x="15" y="11" width="86" height="27">
<rect x="15" y="11" width="86" height="27" fill="url(#paint0_linear_7798_33146)"/>
</mask>
<g mask="url(#mask1_7798_33146)">
<g filter="url(#filter0_d_7798_33146)">
<path d="M45.2027 22.435C44.4993 21.5265 43.3488 21.0461 41.8749 21.0461C40.3617 21.0461 38.9664 21.5485 37.8398 22.4988C36.8152 23.3633 36.0731 24.559 35.7497 25.8659C35.3942 27.3044 35.5943 28.6074 36.3125 29.5352C37.0148 30.4425 38.1604 30.9218 39.6245 30.9218C41.1382 30.9218 42.5352 30.4139 43.6651 29.4526C44.6913 28.5793 45.4361 27.3715 45.7622 26.0519C46.1117 24.6366 45.9133 23.3523 45.2027 22.435ZM40.0068 28.6057C39.3164 28.6057 38.7821 28.3867 38.4614 27.9724C38.1048 27.5118 38.0083 26.8119 38.1964 26.0514C38.5269 24.7148 39.7647 23.3617 41.4921 23.3617C42.1884 23.3617 42.7266 23.5818 43.0494 23.9983C43.3995 24.4506 43.4966 25.1313 43.315 25.8654C42.9895 27.1855 41.8149 28.6057 40.0068 28.6057ZM53.3095 20.4943L51.9626 26.2616L50.7695 21.2728H47.7863L46.13 28.8047L44.8848 30.0421V30.7237H45.4688H47.9084L49.2106 25.4147L50.4887 30.7237H53.3095L53.6785 30.0421L55.6269 21.2728L53.5165 20.4314L53.3095 20.4943Z" fill="url(#paint1_linear_7798_33146)"/>
<path d="M23.9785 20.7618L22.1131 23.1855L19.8772 26.0899C19.8772 26.0899 19.8971 26.2169 19.939 26.4195C19.9837 26.622 20.0625 26.866 20.0625 26.866L22.1278 25.936L20.5343 30.4022C20.5343 30.4022 19.4252 29.5309 18.9505 28.0838C18.5205 26.7681 18.4367 25.0529 19.4099 23.4686C22.8518 17.8697 29.1402 18.5093 31.2401 18.4338L31.1144 18.229C24.7818 16.4029 19.7957 19.0852 16.7293 23.4781C14.4068 26.8045 15.4174 31.4174 20.0823 32.5618C25.985 34.0112 29.7922 30.4778 31.324 27.3708C32.5051 24.974 32.4903 22.4361 32.1318 21.5357C31.2645 19.3588 25.9153 23.0539 25.9153 23.0539L26.995 20.6062C26.995 20.6062 26.3871 20.3622 25.5199 20.4523C24.9693 20.5083 23.9785 20.7618 23.9785 20.7618ZM26.2172 31.4073C26.2172 31.4073 24.4753 32.137 22.2638 31.4241L25.2633 24.6248C25.2633 24.6248 27.7388 23.3752 28.5862 23.9879C29.8268 24.8839 26.2172 31.4073 26.2172 31.4073Z" fill="url(#paint2_linear_7798_33146)"/>
<path d="M69.761 20.7451H69.7012L69.6705 20.7964L67.6969 24.0909L67.6012 24.2506H67.7874H70.2083L70.3522 26.1079H69.0948H66.5479H66.4881L66.4574 26.1592L63.9117 30.4078L63.816 30.5676H64.0022H66.6114H66.6719L66.7024 30.5154L67.8518 28.5535H70.5471L70.6975 30.4703L70.7052 30.5676H70.8027H73.4895H73.6054L73.5946 30.4522L72.6933 20.8408L72.6843 20.7451H72.5882H69.761Z" fill="url(#paint3_linear_7798_33146)" stroke="url(#paint4_linear_7798_33146)" stroke-width="0.211043"/>
<path d="M95.1907 26.48C94.5852 26.2037 94.1636 25.8326 93.9391 25.3543C93.7147 24.8764 93.6945 24.3073 93.8604 23.6496L93.8604 23.6496C94.3213 21.8238 96.1717 20.6168 98.4339 20.6168C99.4314 20.6168 100.336 20.872 100.843 21.3204C100.843 21.3204 100.843 21.3204 100.843 21.3204L101.069 21.5202L101.131 21.5743L101.094 21.647L99.9317 23.9364L99.8721 24.054L99.7704 23.97L99.3858 23.6522C98.8691 23.2256 98.2371 23.1777 97.9864 23.1777C97.5711 23.1777 97.2557 23.2329 97.0343 23.3348C96.8168 23.4349 96.693 23.5782 96.6465 23.7623C96.6236 23.853 96.6245 23.8681 96.6439 23.8946C96.6589 23.9149 96.6896 23.9441 96.753 23.9839C96.8156 24.0233 96.9041 24.0695 97.0286 24.1261L97.0295 24.1266L97.0295 24.1266L98.3216 24.7301C98.3217 24.7302 98.3218 24.7302 98.3219 24.7303C98.9706 25.0283 99.426 25.4126 99.675 25.8957C99.9246 26.38 99.9589 26.9483 99.7949 27.5979M95.1907 26.48L99.6926 27.572M95.1907 26.48L96.5654 27.1089L96.5657 27.1091C96.7046 27.172 96.8039 27.2236 96.8745 27.2677C96.9458 27.3122 96.982 27.3455 97.0003 27.3696C97.016 27.3902 97.019 27.4043 97.0191 27.4189C97.0193 27.4399 97.0138 27.4644 97.0021 27.5109M95.1907 26.48L96.6093 27.013C97.1722 27.2681 97.148 27.3638 97.1044 27.5366L97.1044 27.5368M99.7949 27.5979L99.6926 27.572M99.7949 27.5979C99.7949 27.5978 99.7949 27.5978 99.7949 27.5978L99.6926 27.572M99.7949 27.5979C99.302 29.5519 97.6117 30.7079 95.3064 30.7079C94.8763 30.7079 94.3695 30.6451 93.9014 30.5133C93.4357 30.3821 92.9958 30.1791 92.712 29.89L92.7119 29.8899L92.5584 29.7332L92.517 29.691L92.5315 29.6336L93.1852 27.0431L93.2295 26.8674L93.3605 26.9927L93.8549 27.4661M99.6926 27.572C99.214 29.4697 97.574 30.6023 95.3064 30.6023C94.4646 30.6023 93.3175 30.3561 92.7873 29.8161L92.6338 29.6594L93.2578 27.1866L93.2145 27.1452L93.2875 27.0689L93.3898 27.0948L93.3751 27.1529L93.782 27.5424M93.8549 27.4661L93.782 27.5424M93.8549 27.4661L93.855 27.4661L93.782 27.5424M93.8549 27.4661C94.2695 27.8624 95.0515 28.1476 95.7534 28.1476C96.1326 28.1476 96.421 28.0884 96.6256 27.9799C96.8263 27.8734 96.9497 27.7181 97.0021 27.5109M93.782 27.5424C94.2199 27.961 95.03 28.2531 95.7534 28.2531C96.53 28.2531 96.9843 28.0119 97.1044 27.5368M97.1044 27.5368L97.0021 27.511C97.0021 27.5109 97.0021 27.5109 97.0021 27.5109M97.1044 27.5368L97.0021 27.5109" fill="url(#paint5_linear_7798_33146)" stroke="url(#paint6_linear_7798_33146)" stroke-width="0.211043"/>
<path d="M92.0083 28.0072H87.6657L87.9682 26.8086H91.2311H91.3132L91.3334 26.7289L91.9236 24.392L91.9568 24.2606H91.8213H88.6112L88.8519 23.306H93.2483H93.3305L93.3506 23.2263L93.9437 20.8765L93.9768 20.7451H93.8414H86.8046H86.7224L86.7023 20.8248L84.2761 30.4362L84.2429 30.5675H84.3784H91.4157H91.4979L91.518 30.4878L92.1106 28.1386L92.1437 28.0072H92.0083Z" fill="url(#paint7_linear_7798_33146)" stroke="url(#paint8_linear_7798_33146)" stroke-width="0.211043"/>
<path d="M59.9797 26.754L59.9465 26.8854H60.082H61.778L61.4672 28.1169C61.3022 28.1378 61.1503 28.1478 61.0077 28.1478C59.9457 28.1478 59.1692 27.8653 58.79 27.3849L58.79 27.3848C58.4842 26.9981 58.4056 26.4471 58.5875 25.725C58.8782 24.5732 59.6074 23.955 60.3562 23.6218C61.1089 23.2868 61.88 23.2412 62.2375 23.2412C62.9599 23.2412 63.5663 23.3991 64.0958 23.7195L64.4646 23.9428L64.5619 24.0017L64.6133 23.9003L65.8001 21.5616L65.8453 21.4726L65.7589 21.4226L65.4383 21.2368L65.4383 21.2368C64.9542 20.9565 64.0882 20.6299 62.6844 20.6299C61.8913 20.6299 60.3314 20.7553 58.8129 21.5979L58.8129 21.5979C57.2613 22.4591 56.2479 23.7908 55.8043 25.5486C55.4447 26.9729 55.6183 28.1684 56.3427 29.0838C57.1664 30.1255 58.6967 30.7087 60.5222 30.7087C61.4602 30.7087 62.6412 30.53 63.4 30.271C63.4 30.271 63.4 30.271 63.4 30.271L63.6033 30.2016L63.6576 30.1831L63.6716 30.1275L65.0963 24.4816L65.1294 24.3503H64.9939H60.6695H60.5873L60.5672 24.4299L59.9797 26.754Z" fill="url(#paint9_linear_7798_33146)" stroke="url(#paint10_linear_7798_33146)" stroke-width="0.211043"/>
<path d="M82.4822 20.7451H82.417L82.3878 20.8035L79.6329 26.3273L79.7186 20.8523L79.7202 20.7451H79.6131H76.255H76.1728L76.1527 20.8248L73.727 30.4362L73.6939 30.5675H73.8293H76.1366H76.2188L76.2389 30.4878L77.3798 25.9681L77.4104 30.4627L77.4112 30.5675H77.516H78.5934H79.6714H79.7359L79.7653 30.5101L82.063 26.0186L80.9479 30.4362L80.9147 30.5675H81.0502H83.3574H83.4396L83.4598 30.4878L85.8854 20.8765L85.9185 20.7451H85.7831H82.4822Z" fill="url(#paint11_linear_7798_33146)" stroke="url(#paint12_linear_7798_33146)" stroke-width="0.211043"/>
<path d="M45.2419 21.8174C44.5111 20.9102 43.3158 20.4305 41.7847 20.4305C40.2127 20.4305 38.7631 20.9322 37.5928 21.8812C36.5284 22.7444 35.7574 23.9385 35.4215 25.2435C35.0521 26.6798 35.26 27.981 36.0061 28.9075C36.7357 29.8136 37.9258 30.2922 39.4468 30.2922C41.0194 30.2922 42.4707 29.785 43.6444 28.825C44.7105 27.953 45.4843 26.7469 45.8231 25.4292C46.1862 24.0159 45.98 22.7334 45.2419 21.8174ZM39.8439 27.9794C39.1268 27.9794 38.5716 27.7607 38.2385 27.3469C37.8681 26.887 37.7678 26.1881 37.9632 25.4287C38.3065 24.094 39.5924 22.7428 41.387 22.7428C42.1104 22.7428 42.6695 22.9626 43.0049 23.3785C43.3685 23.8302 43.4694 24.5099 43.2807 25.2429C42.9425 26.5612 41.7224 27.9794 39.8439 27.9794ZM53.5356 20.6569L52.2644 25.6386L51.025 20.6569H47.9258L45.9981 28.2124C45.6435 29.4448 44.9116 30.0943 44.9116 30.0943H45.5183H48.0527L49.4054 24.7929L50.7333 30.0943H53.6636L56.0711 20.6569H53.5356Z" fill="url(#paint13_linear_7798_33146)"/>
<path d="M33.5242 15.9999L33.7666 17.5742L35.2417 18.2743L33.774 18.9858L33.5417 20.5629L32.3929 19.4243L30.7745 19.7002L31.563 18.2336L30.7031 16.9374L32.3833 17.1456L33.5242 15.9999Z" fill="url(#paint14_linear_7798_33146)"/>
<path d="M23.9785 20.5692L22.1131 22.9491L19.8772 25.8009C19.8772 25.8009 19.8971 25.9256 19.939 26.1245C19.9837 26.3235 20.0625 26.563 20.0625 26.563L22.1278 25.6498L20.5343 30.0352C20.5343 30.0352 19.4252 29.1797 18.9505 27.7587C18.5205 26.4669 18.4367 24.7827 19.4099 23.2271C22.8518 17.7295 29.1402 18.3576 31.2401 18.2834L31.1144 18.0823C24.7818 16.2893 19.7957 18.923 16.7293 23.2364C14.4068 26.5026 15.4174 31.032 20.0823 32.1557C25.985 33.5789 29.7922 30.1094 31.324 27.0587C32.5051 24.7052 32.4903 22.2133 32.1318 21.3292C31.2645 19.1917 25.9153 22.8199 25.9153 22.8199L26.995 20.4165C26.995 20.4165 26.3871 20.1769 25.5199 20.2654C24.9693 20.3203 23.9785 20.5692 23.9785 20.5692ZM26.2172 31.0221C26.2172 31.0221 24.4753 31.7386 22.2638 31.0386L25.2633 24.3623C25.2633 24.3623 27.7388 23.1353 28.5862 23.737C29.8268 24.6168 26.2172 31.0221 26.2172 31.0221Z" fill="url(#paint15_linear_7798_33146)"/>
<path d="M69.761 20.6565L67.7874 23.8913H70.3059L70.4662 25.9222H69.0948H66.5479L64.0022 30.0939H66.6114L67.7913 28.1163H70.6447L70.8027 30.0939H73.4895L72.5882 20.6565H69.761Z" fill="url(#paint16_linear_7798_33146)"/>
<path d="M97.9866 22.8378C98.2461 22.8378 98.9083 22.8856 99.4533 23.3274L99.8379 23.6395L101 21.3916L100.774 21.1954C100.294 20.7789 99.4193 20.5306 98.4342 20.5306C96.2057 20.5306 94.4088 21.696 93.963 23.4302C93.639 24.6913 94.0547 25.5611 95.2347 26.0897L96.6095 26.7073C97.1726 26.9579 97.1483 27.0518 97.1046 27.2216C96.9846 27.6881 96.5302 27.925 95.7536 27.925C95.0302 27.925 94.2202 27.6381 93.7823 27.2271L93.2877 26.7623L92.634 29.3058L92.7875 29.4597C93.3178 29.9899 94.4649 30.2317 95.3067 30.2317C97.5743 30.2317 99.2142 29.1196 99.6929 27.2563C100.012 26.0155 99.5484 25.133 98.2778 24.5599L96.9851 23.967C96.4798 23.7412 96.5013 23.6577 96.5444 23.4901C96.656 23.0571 97.1415 22.8378 97.9866 22.8378Z" fill="url(#paint17_linear_7798_33146)"/>
<path d="M87.5303 27.7872L87.886 26.403H91.2311L91.8213 24.1084H88.4757L88.7697 22.9638H93.2483L93.8414 20.6565H86.8046L84.3784 30.0939H91.4157L92.0083 27.7872H87.5303Z" fill="url(#paint18_linear_7798_33146)"/>
<path d="M60.082 26.4786H61.9135L61.552 27.8848C61.3555 27.9122 61.1759 27.9254 61.0077 27.9254C59.9336 27.9254 59.1162 27.6457 58.7072 27.1369C58.3736 26.7226 58.2988 26.144 58.4852 25.4176C59.0856 23.0817 61.509 22.9004 62.2375 22.9004C62.9762 22.9004 63.6021 23.0592 64.1505 23.385L64.5192 23.6043L65.706 21.308L65.3854 21.1255C64.9186 20.8601 64.0712 20.5436 62.6844 20.5436C61.9004 20.5436 60.3608 20.6656 58.8641 21.4811C57.3386 22.3124 56.3433 23.596 55.9066 25.295C55.5525 26.672 55.727 27.81 56.4255 28.6766C57.2219 29.6656 58.7151 30.2327 60.5222 30.2327C61.4506 30.2327 62.6199 30.0585 63.3659 29.8085L63.5693 29.7404L64.9939 24.1966H60.6695L60.082 26.4786Z" fill="url(#paint19_linear_7798_33146)"/>
<path d="M82.4822 20.6565L79.5202 26.4882L79.6131 20.6565H76.255L73.8293 30.0939H76.1366L77.4797 24.8694L77.516 30.0939H78.5934H79.6714L82.3933 24.8694L81.0502 30.0939H83.3574L85.7831 20.6565H82.4822Z" fill="url(#paint20_linear_7798_33146)"/>
</g>
<mask id="mask2_7798_33146" style="mask-type:alpha" maskUnits="userSpaceOnUse" x="15" y="25" width="85" height="8">
<path d="M99.9448 33V26.1829C82.6393 24.5344 41.2047 25.4961 15.0002 26.1829V33H99.9448Z" fill="#D9D9D9"/>
</mask>
<g mask="url(#mask2_7798_33146)">
<g filter="url(#filter1_d_7798_33146)">
<path d="M45.2416 21.8175C44.5109 20.9103 43.3156 20.4306 41.7844 20.4306C40.2125 20.4306 38.7628 20.9323 37.5925 21.8812C36.5281 22.7445 35.7571 23.9385 35.4212 25.2435C35.0519 26.6799 35.2598 27.9811 36.0058 28.9075C36.7354 29.8136 37.9256 30.2922 39.4466 30.2922C41.0191 30.2922 42.4704 29.785 43.6442 28.8251C44.7103 27.953 45.4841 26.7469 45.8228 25.4293C46.1859 24.016 45.9797 22.7335 45.2416 21.8175ZM39.8437 27.9794C39.1265 27.9794 38.5714 27.7607 38.2383 27.347C37.8678 26.887 37.7676 26.1881 37.963 25.4287C38.3063 24.094 39.5922 22.7428 41.3868 22.7428C42.1101 22.7428 42.6693 22.9626 43.0046 23.3786C43.3683 23.8303 43.4691 24.51 43.2805 25.243C42.9423 26.5612 41.7221 27.9794 39.8437 27.9794ZM53.5354 20.657L52.2642 25.6386L51.0247 20.657H47.9256L45.9979 28.2124C45.6432 29.4449 44.9114 30.0944 44.9114 30.0944H45.5181H48.0525L49.4052 24.793L50.733 30.0944H53.6634L56.0709 20.657H53.5354Z" fill="url(#paint21_linear_7798_33146)"/>
<path d="M23.9783 20.5692L22.1129 22.9491L19.877 25.8009C19.877 25.8009 19.8968 25.9256 19.9387 26.1245C19.9835 26.3234 20.0622 26.563 20.0622 26.563L22.1276 25.6498L20.5341 30.0352C20.5341 30.0352 19.4249 29.1797 18.9502 27.7587C18.5203 26.4669 18.4364 24.7827 19.4096 23.2271C22.8515 17.7295 29.14 18.3576 31.2399 18.2834L31.1141 18.0823C24.7815 16.2893 19.7954 18.923 16.7291 23.2364C14.4065 26.5026 15.4171 31.032 20.082 32.1557C25.9847 33.5788 29.792 30.1094 31.3237 27.0587C32.5048 24.7052 32.4901 22.2133 32.1315 21.3292C31.2642 19.1917 25.915 22.8199 25.915 22.8199L26.9947 20.4165C26.9947 20.4165 26.3869 20.1769 25.5196 20.2654C24.969 20.3203 23.9783 20.5692 23.9783 20.5692ZM26.217 31.0221C26.217 31.0221 24.4751 31.7386 22.2635 31.0386L25.263 24.3623C25.263 24.3623 27.7385 23.1353 28.586 23.737C29.8265 24.6167 26.217 31.0221 26.217 31.0221Z" fill="url(#paint22_linear_7798_33146)"/>
<path d="M69.7607 20.6565L67.7871 23.8913H70.3057L70.466 25.9222H69.0946H66.5477L64.002 30.0939H66.6111L67.7911 28.1163H70.6444L70.8025 30.0939H73.4893L72.588 20.6565H69.7607Z" fill="url(#paint23_linear_7798_33146)"/>
<path d="M97.9864 22.8378C98.2458 22.8378 98.9081 22.8856 99.453 23.3274L99.8376 23.6395L100.999 21.3916L100.773 21.1954C100.294 20.7789 99.419 20.5305 98.4339 20.5305C96.2054 20.5305 94.4086 21.696 93.9627 23.4302C93.6387 24.6912 94.0545 25.5611 95.2345 26.0897L96.6093 26.7073C97.1724 26.9579 97.148 27.0518 97.1044 27.2216C96.9843 27.6881 96.53 27.925 95.7534 27.925C95.03 27.925 94.2199 27.6381 93.782 27.2271L93.2875 26.7622L92.6338 29.3058L92.7873 29.4597C93.3175 29.9899 94.4646 30.2317 95.3064 30.2317C97.574 30.2317 99.214 29.1195 99.6926 27.2562C100.012 26.0155 99.5482 25.133 98.2776 24.5599L96.9849 23.967C96.4796 23.7412 96.5011 23.6577 96.5442 23.4901C96.6558 23.0571 97.1412 22.8378 97.9864 22.8378Z" fill="url(#paint24_linear_7798_33146)"/>
<path d="M87.53 27.7872L87.8858 26.403H91.2308L91.8211 24.1084H88.4755L88.7695 22.9638H93.248L93.8411 20.6565H86.8044L84.3782 30.0939H91.4155L92.008 27.7872H87.53Z" fill="url(#paint25_linear_7798_33146)"/>
<path d="M60.0818 26.4786H61.9132L61.5518 27.8847C61.3552 27.9122 61.1757 27.9254 61.0074 27.9254C59.9334 27.9254 59.116 27.6457 58.707 27.1369C58.3733 26.7226 58.2985 26.144 58.4849 25.4175C59.0854 23.0817 61.5088 22.9004 62.2372 22.9004C62.9759 22.9004 63.6019 23.0592 64.1502 23.385L64.519 23.6042L65.7058 21.3079L65.3851 21.1255C64.9184 20.8601 64.0709 20.5436 62.6842 20.5436C61.9002 20.5436 60.3605 20.6656 58.8639 21.481C57.3384 22.3124 56.3431 23.596 55.9063 25.295C55.5523 26.672 55.7267 27.81 56.4252 28.6765C57.2217 29.6656 58.7149 30.2327 60.522 30.2327C61.4504 30.2327 62.6196 30.0585 63.3657 29.8085L63.569 29.7403L64.9937 24.1966H60.6692L60.0818 26.4786Z" fill="url(#paint26_linear_7798_33146)"/>
<path d="M82.482 20.6565L79.5199 26.4882L79.6128 20.6565H76.2547L73.8291 30.0939H76.1364L77.4795 24.8694L77.5157 30.0939H78.5932H79.6712L82.3931 24.8694L81.05 30.0939H83.3572L85.7828 20.6565H82.482Z" fill="url(#paint27_linear_7798_33146)"/>
</g>
</g>
</g>
</g>
<defs>
<filter id="filter0_d_7798_33146" x="13.4184" y="13.8895" width="92.0639" height="23.2283" filterUnits="userSpaceOnUse" color-interpolation-filters="sRGB">
<feFlood flood-opacity="0" result="BackgroundImageFix"/>
<feColorMatrix in="SourceAlpha" type="matrix" values="0 0 0 0 0 0 0 0 0 0 0 0 0 0 0 0 0 0 127 0" result="hardAlpha"/>
<feOffset dx="1.05521" dy="1.05521"/>
<feGaussianBlur stdDeviation="1.58282"/>
<feComposite in2="hardAlpha" operator="out"/>
<feColorMatrix type="matrix" values="0 0 0 0 0.0519618 0 0 0 0 0.0754227 0 0 0 0 0.304167 0 0 0 0.4 0"/>
<feBlend mode="normal" in2="BackgroundImageFix" result="effect1_dropShadow_7798_33146"/>
<feBlend mode="normal" in="SourceGraphic" in2="effect1_dropShadow_7798_33146" result="shape"/>
</filter>
<filter id="filter1_d_7798_33146" x="13.4181" y="13.8895" width="91.8022" height="22.8161" filterUnits="userSpaceOnUse" color-interpolation-filters="sRGB">
<feFlood flood-opacity="0" result="BackgroundImageFix"/>
<feColorMatrix in="SourceAlpha" type="matrix" values="0 0 0 0 0 0 0 0 0 0 0 0 0 0 0 0 0 0 127 0" result="hardAlpha"/>
<feOffset dx="1.05521" dy="1.05521"/>
<feGaussianBlur stdDeviation="1.58282"/>
<feComposite in2="hardAlpha" operator="out"/>
<feColorMatrix type="matrix" values="0 0 0 0 0.0519618 0 0 0 0 0.0754227 0 0 0 0 0.304167 0 0 0 0.4 0"/>
<feBlend mode="normal" in2="BackgroundImageFix" result="effect1_dropShadow_7798_33146"/>
<feBlend mode="normal" in="SourceGraphic" in2="effect1_dropShadow_7798_33146" result="shape"/>
</filter>
<linearGradient id="paint0_linear_7798_33146" x1="58" y1="11" x2="58" y2="39" gradientUnits="userSpaceOnUse">
<stop stop-color="#D9D9D9"/>
<stop offset="0.903923" stop-color="#D9D9D9"/>
<stop offset="0.973506" stop-color="#D9D9D9" stop-opacity="0"/>
</linearGradient>
<linearGradient id="paint1_linear_7798_33146" x1="45.6024" y1="21.0461" x2="45.6024" y2="30.9218" gradientUnits="userSpaceOnUse">
<stop stop-color="#C96000"/>
<stop offset="1" stop-color="#F5A200" stop-opacity="0.97"/>
</linearGradient>
<linearGradient id="paint2_linear_7798_33146" x1="23.9372" y1="17.6485" x2="23.9372" y2="32.897" gradientUnits="userSpaceOnUse">
<stop stop-color="#C96000"/>
<stop offset="1" stop-color="#C87800" stop-opacity="0.97"/>
</linearGradient>
<linearGradient id="paint3_linear_7798_33146" x1="68.7459" y1="20.8507" x2="68.7459" y2="30.462" gradientUnits="userSpaceOnUse">
<stop stop-color="#0F1232"/>
<stop offset="1" stop-color="#585A6F"/>
</linearGradient>
<linearGradient id="paint4_linear_7798_33146" x1="68.7459" y1="20.8507" x2="68.7459" y2="30.462" gradientUnits="userSpaceOnUse">
<stop/>
<stop offset="1" stop-color="#AEAEAE" stop-opacity="0"/>
</linearGradient>
<linearGradient id="paint5_linear_7798_33146" x1="96.8166" y1="20.7224" x2="96.8166" y2="30.6023" gradientUnits="userSpaceOnUse">
<stop stop-color="#0F1232"/>
<stop offset="1" stop-color="#585A6F"/>
</linearGradient>
<linearGradient id="paint6_linear_7798_33146" x1="96.8166" y1="20.7224" x2="96.8166" y2="30.6023" gradientUnits="userSpaceOnUse">
<stop/>
<stop offset="1" stop-color="#AEAEAE" stop-opacity="0"/>
</linearGradient>
<linearGradient id="paint7_linear_7798_33146" x1="89.1099" y1="20.8506" x2="89.1099" y2="30.462" gradientUnits="userSpaceOnUse">
<stop stop-color="#0F1232"/>
<stop offset="1" stop-color="#585A6F"/>
</linearGradient>
<linearGradient id="paint8_linear_7798_33146" x1="89.1099" y1="20.8506" x2="89.1099" y2="30.462" gradientUnits="userSpaceOnUse">
<stop/>
<stop offset="1" stop-color="#AEAEAE" stop-opacity="0"/>
</linearGradient>
<linearGradient id="paint9_linear_7798_33146" x1="60.7173" y1="20.7355" x2="60.7173" y2="30.6031" gradientUnits="userSpaceOnUse">
<stop stop-color="#0F1232"/>
<stop offset="1" stop-color="#585A6F"/>
</linearGradient>
<linearGradient id="paint10_linear_7798_33146" x1="60.7173" y1="20.7355" x2="60.7173" y2="30.6031" gradientUnits="userSpaceOnUse">
<stop/>
<stop offset="1" stop-color="#AEAEAE" stop-opacity="0"/>
</linearGradient>
<linearGradient id="paint11_linear_7798_33146" x1="79.8062" y1="20.8506" x2="79.8062" y2="30.462" gradientUnits="userSpaceOnUse">
<stop stop-color="#0F1232"/>
<stop offset="1" stop-color="#585A6F"/>
</linearGradient>
<linearGradient id="paint12_linear_7798_33146" x1="79.8062" y1="20.8506" x2="79.8062" y2="30.462" gradientUnits="userSpaceOnUse">
<stop/>
<stop offset="1" stop-color="#AEAEAE" stop-opacity="0"/>
</linearGradient>
<linearGradient id="paint13_linear_7798_33146" x1="45.657" y1="20.4305" x2="45.657" y2="30.2922" gradientUnits="userSpaceOnUse">
<stop stop-color="#FACD13"/>
<stop offset="1" stop-color="#FAAB13"/>
</linearGradient>
<linearGradient id="paint14_linear_7798_33146" x1="32.9724" y1="15.9999" x2="32.9724" y2="20.5629" gradientUnits="userSpaceOnUse">
<stop stop-color="#FEFEFE"/>
<stop offset="1" stop-color="#D3DAD6"/>
</linearGradient>
<linearGradient id="paint15_linear_7798_33146" x1="23.9372" y1="17.5123" x2="23.9372" y2="32.4848" gradientUnits="userSpaceOnUse">
<stop stop-color="#FACD13"/>
<stop offset="1" stop-color="#FAAB13"/>
</linearGradient>
<linearGradient id="paint16_linear_7798_33146" x1="68.7459" y1="20.6565" x2="68.7459" y2="30.0939" gradientUnits="userSpaceOnUse">
<stop stop-color="#F9FAF9"/>
<stop offset="1" stop-color="#DADFDD"/>
</linearGradient>
<linearGradient id="paint17_linear_7798_33146" x1="96.8169" y1="20.5306" x2="96.8169" y2="30.2317" gradientUnits="userSpaceOnUse">
<stop stop-color="#F9FAF9"/>
<stop offset="1" stop-color="#DADFDD"/>
</linearGradient>
<linearGradient id="paint18_linear_7798_33146" x1="89.1099" y1="20.6565" x2="89.1099" y2="30.0939" gradientUnits="userSpaceOnUse">
<stop stop-color="#F9FAF9"/>
<stop offset="1" stop-color="#DADFDD"/>
</linearGradient>
<linearGradient id="paint19_linear_7798_33146" x1="60.7173" y1="20.5436" x2="60.7173" y2="30.2327" gradientUnits="userSpaceOnUse">
<stop stop-color="#F9FAF9"/>
<stop offset="1" stop-color="#DADFDD"/>
</linearGradient>
<linearGradient id="paint20_linear_7798_33146" x1="79.8062" y1="20.6565" x2="79.8062" y2="30.0939" gradientUnits="userSpaceOnUse">
<stop stop-color="#F9FAF9"/>
<stop offset="1" stop-color="#DADFDD"/>
</linearGradient>
<linearGradient id="paint21_linear_7798_33146" x1="45.6568" y1="20.4306" x2="45.6568" y2="30.2922" gradientUnits="userSpaceOnUse">
<stop stop-color="#FF800B"/>
<stop offset="1" stop-color="#FFB905" stop-opacity="0.5"/>
</linearGradient>
<linearGradient id="paint22_linear_7798_33146" x1="23.937" y1="17.5123" x2="23.937" y2="32.4848" gradientUnits="userSpaceOnUse">
<stop stop-color="#FF800B"/>
<stop offset="1" stop-color="#FFB905" stop-opacity="0.5"/>
</linearGradient>
<linearGradient id="paint23_linear_7798_33146" x1="68.7456" y1="20.6565" x2="68.7456" y2="30.0939" gradientUnits="userSpaceOnUse">
<stop stop-color="#D1D1D1"/>
<stop offset="1" stop-color="#E6E6E6"/>
</linearGradient>
<linearGradient id="paint24_linear_7798_33146" x1="96.8166" y1="20.5305" x2="96.8166" y2="30.2317" gradientUnits="userSpaceOnUse">
<stop stop-color="#D1D1D1"/>
<stop offset="1" stop-color="#E6E6E6"/>
</linearGradient>
<linearGradient id="paint25_linear_7798_33146" x1="89.1096" y1="20.6565" x2="89.1096" y2="30.0939" gradientUnits="userSpaceOnUse">
<stop stop-color="#D1D1D1"/>
<stop offset="1" stop-color="#E6E6E6"/>
</linearGradient>
<linearGradient id="paint26_linear_7798_33146" x1="60.717" y1="20.5436" x2="60.717" y2="30.2327" gradientUnits="userSpaceOnUse">
<stop stop-color="#D1D1D1"/>
<stop offset="1" stop-color="#E6E6E6"/>
</linearGradient>
<linearGradient id="paint27_linear_7798_33146" x1="79.806" y1="20.6565" x2="79.806" y2="30.0939" gradientUnits="userSpaceOnUse">
<stop stop-color="#D1D1D1"/>
<stop offset="1" stop-color="#E6E6E6"/>
</linearGradient>
</defs>
</svg>
